<svg width="376" height="154" viewBox="0 0 376 154" fill="none" xmlns="http://www.w3.org/2000/svg">
<rect width="376" height="154" fill="white"/>
<path d="M94.896 110.28C91.2267 110.28 87.6 109.853 84.016 109C80.5173 108.147 77.4027 106.867 74.672 105.16C73.7333 104.477 73.0933 103.496 72.752 102.216C72.4107 100.851 72.24 99.2293 72.24 97.352C72.24 94.024 72.88 90.0987 74.16 85.576C75.44 80.968 77.0613 76.232 79.024 71.368C80.9867 66.504 83.0347 61.896 85.168 57.544C87.3013 53.192 89.2213 49.608 90.928 46.792C92.5493 44.3173 94.5547 42.6107 96.944 41.672C99.3333 40.648 101.851 40.136 104.496 40.136C110.213 40.136 112.645 40.648 111.792 41.672C110 43.72 108.123 46.408 106.16 49.736C104.197 53.064 102.363 56.4773 100.656 59.976C98.9493 63.3893 97.4987 66.376 96.304 68.936C93.488 74.9093 91.0133 80.7547 88.88 86.472C86.7467 92.104 85.296 96.6693 84.528 100.168C84.3573 100.851 84.272 101.405 84.272 101.832C84.272 102.771 84.5707 103.624 85.168 104.392C85.7653 105.075 86.832 105.544 88.368 105.8C88.9653 105.885 89.52 105.971 90.032 106.056C90.6293 106.056 91.2267 106.056 91.824 106.056C95.0667 106.056 98.0533 105.245 100.784 103.624C103.515 102.003 105.221 99.656 105.904 96.584C106.16 95.56 106.245 94.4507 106.16 93.256C106.16 91.208 105.861 88.9467 105.264 86.472C104.667 83.9973 103.771 81.6933 102.576 79.56C101.467 77.4267 100.016 75.848 98.224 74.824C97.3707 74.312 96.944 73.7147 96.944 73.032C96.944 72.264 97.4133 71.7947 98.352 71.624C100.4 71.624 102.491 70.8133 104.624 69.192C106.843 67.5707 108.848 65.4373 110.64 62.792C112.517 60.1467 114.011 57.288 115.12 54.216C116.315 51.0587 116.912 48.0293 116.912 45.128C116.912 41.032 115.675 38.216 113.2 36.68C110.811 35.0587 107.952 34.248 104.624 34.248C101.808 34.248 98.9067 34.6747 95.92 35.528C92.9333 36.296 90.3307 37.192 88.112 38.216C83.3333 40.4347 79.3227 43.2933 76.08 46.792C72.9227 50.2907 71.088 53.704 70.576 57.032C70.1493 56.8613 69.3387 56.648 68.144 56.392C66.9493 56.136 65.7547 55.624 64.56 54.856C63.4507 54.088 62.8107 52.9787 62.64 51.528C62.384 48.5413 63.1093 45.896 64.816 43.592C66.608 41.2027 69.04 39.1973 72.112 37.576C75.2693 35.8693 78.7253 34.4613 82.48 33.352C86.32 32.2427 90.2027 31.432 94.128 30.92C98.0533 30.408 101.723 30.152 105.136 30.152C106.587 30.152 107.952 30.1947 109.232 30.28C110.512 30.3653 111.664 30.4933 112.688 30.664C119.515 31.7733 124.421 33.992 127.408 37.32C130.395 40.5627 131.888 44.1893 131.888 48.2C131.888 51.784 130.821 55.3253 128.688 58.824C126.555 62.2373 123.611 65.1387 119.856 67.528C116.187 69.832 111.963 71.112 107.184 71.368C112.133 72.4773 115.931 74.8667 118.576 78.536C121.307 82.12 122.672 86.0027 122.672 90.184C122.672 93.6827 121.648 97.0533 119.6 100.296C117.552 103.539 114.267 106.013 109.744 107.72C105.307 109.427 100.357 110.28 94.896 110.28ZM155.065 109.768C153.785 109.768 152.59 109.64 151.481 109.384C150.457 109.213 149.22 108.829 147.769 108.232C145.892 107.464 144.526 106.141 143.673 104.264C142.905 102.301 142.521 99.9973 142.521 97.352C142.521 94.1093 143.033 90.5253 144.057 86.6C145.166 82.6747 146.532 78.8773 148.153 75.208C149.689 71.7947 150.969 68.8507 151.993 66.376C153.102 63.816 154.212 61.5973 155.321 59.72C156.516 57.8427 157.966 56.1787 159.673 54.728C161.38 53.192 163.556 51.7413 166.201 50.376C168.249 49.4373 170.468 48.968 172.857 48.968C175.246 48.968 177.465 49.3093 179.513 49.992C180.366 50.248 180.793 50.5893 180.793 51.016C180.793 51.3573 180.494 51.6987 179.897 52.04C179.129 52.552 178.105 53.448 176.825 54.728C175.545 55.9227 174.18 57.544 172.729 59.592C171.961 60.7013 170.937 62.28 169.657 64.328C168.377 66.376 167.396 68.04 166.713 69.32C166.03 70.5147 165.476 71.5387 165.049 72.392C164.622 73.16 164.324 73.7573 164.153 74.184L161.977 78.536C162.745 77.256 163.854 75.6347 165.305 73.672C166.841 71.7093 168.505 69.704 170.297 67.656C172.174 65.5227 174.009 63.6027 175.801 61.896C177.593 60.1893 179.513 58.5253 181.561 56.904C183.694 55.1973 185.828 53.832 187.961 52.808C190.094 51.6987 192.057 51.144 193.849 51.144C195.556 51.144 197.092 51.6133 198.457 52.552C199.822 53.4053 200.505 54.3013 200.505 55.24C200.505 56.264 199.694 56.9893 198.073 57.416C194.574 58.3547 190.82 59.848 186.809 61.896C182.798 63.8587 179.214 65.9493 176.057 68.168C176.057 69.704 176.185 71.7947 176.441 74.44C176.697 77.0853 176.996 79.7733 177.337 82.504C177.764 85.2347 178.19 87.5387 178.617 89.416C178.958 90.8667 179.385 92.5733 179.897 94.536C180.494 96.4133 181.262 98.0773 182.201 99.528C183.225 100.893 184.42 101.576 185.785 101.576C186.297 101.576 186.98 101.363 187.833 100.936C188.174 100.595 188.345 100.68 188.345 101.192C188.345 101.789 188.132 102.216 187.705 102.472C185.06 104.691 182.5 106.44 180.025 107.72C177.636 109 175.46 109.64 173.497 109.64C171.022 109.64 169.188 108.531 167.993 106.312C166.969 104.605 166.244 102.728 165.817 100.68C165.39 98.5467 165.092 96.456 164.921 94.408C164.921 93.896 164.878 93.3413 164.793 92.744C164.793 92.0613 164.793 91.3787 164.793 90.696C164.793 88.3067 164.878 85.9173 165.049 83.528C165.22 81.0533 165.39 79.4747 165.561 78.792C163.769 79.9013 162.105 81.864 160.569 84.68C159.033 87.4107 157.796 90.3973 156.857 93.64C156.004 96.8827 155.577 99.8267 155.577 102.472C155.577 103.667 155.662 104.776 155.833 105.8C156.089 106.739 156.473 107.464 156.985 107.976C157.497 108.573 157.497 109.043 156.985 109.384C156.644 109.64 156.004 109.768 155.065 109.768ZM248.153 109.768C244.398 109.768 241.71 108.445 240.089 105.8C238.468 103.155 237.7 100.083 237.785 96.584C235.14 101.533 232.409 104.904 229.593 106.696C226.862 108.403 224.089 109.256 221.273 109.256C217.86 109.256 215.513 108.36 214.233 106.568C212.953 104.776 212.313 102.643 212.313 100.168C212.313 98.2053 212.526 96.2427 212.953 94.28C213.465 92.232 214.02 90.3547 214.617 88.648C215.726 85.4053 216.921 82.12 218.201 78.792C219.566 75.3787 220.889 72.3067 222.169 69.576C223.449 66.8453 224.43 64.84 225.113 63.56C226.82 60.488 228.74 58.3973 230.873 57.288C233.006 56.0933 235.182 55.496 237.401 55.496C238.084 55.496 238.766 55.5387 239.449 55.624C240.217 55.7093 240.9 55.8373 241.497 56.008C242.606 56.264 243.46 56.52 244.057 56.776C244.654 56.9467 244.953 57.288 244.953 57.8C244.953 58.056 244.825 58.44 244.569 58.952C243.374 61 241.881 63.6453 240.089 66.888C238.382 70.0453 236.633 73.4587 234.841 77.128C233.049 80.7973 231.428 84.424 229.977 88.008C228.612 91.5067 227.63 94.664 227.033 97.48C226.948 97.9067 226.862 98.2907 226.777 98.632C226.777 98.9733 226.777 99.3147 226.777 99.656C226.777 101.107 227.332 101.832 228.441 101.832C229.55 101.832 230.745 100.979 232.025 99.272C233.305 97.5653 234.542 95.5173 235.737 93.128C237.017 90.7387 238.084 88.5627 238.937 86.6C239.876 84.552 240.473 83.272 240.729 82.76C242.18 79.7733 243.46 76.9147 244.569 74.184C245.764 71.368 247.044 68.6373 248.409 65.992C250.286 62.2373 252.206 59.464 254.169 57.672C256.132 55.88 258.18 54.8133 260.313 54.472C260.996 54.3013 261.636 54.216 262.233 54.216C262.916 54.216 263.556 54.216 264.153 54.216C265.604 54.216 266.884 54.2587 267.993 54.344C269.188 54.4293 270.041 54.5147 270.553 54.6C272.004 54.6853 272.729 55.112 272.729 55.88C272.729 56.8187 272.089 57.3733 270.809 57.544C269.956 57.6293 268.804 58.7387 267.353 60.872C265.988 62.92 264.537 65.352 263.001 68.168C260.612 72.6053 258.308 77.384 256.089 82.504C253.87 87.5387 252.292 92.616 251.353 97.736C251.268 98.3333 251.182 98.888 251.097 99.4C251.097 99.8267 251.097 100.253 251.097 100.68C251.097 102.813 251.652 103.88 252.761 103.88C254.126 103.88 255.534 103.155 256.985 101.704C258.436 100.253 259.844 98.504 261.209 96.456C262.404 94.664 263.598 92.6587 264.793 90.44C265.988 88.2213 267.054 86.1733 267.993 84.296C268.932 82.3333 269.614 80.968 270.041 80.2C270.297 79.688 270.638 79.432 271.065 79.432C271.577 79.432 272.046 79.816 272.473 80.584C272.9 81.2667 272.942 81.9493 272.601 82.632C270.98 85.7893 269.23 89.16 267.353 92.744C265.476 96.328 263.428 99.5707 261.209 102.472C257.454 107.336 253.102 109.768 248.153 109.768ZM296.884 110.024C293.812 110.024 291.039 109.171 288.564 107.464C286.089 105.672 284.852 102.771 284.852 98.76C284.852 96.1147 285.279 93.0427 286.132 89.544C287.071 86.0453 288.223 82.4613 289.588 78.792C290.953 75.0373 292.361 71.5813 293.812 68.424C295.348 65.1813 296.713 62.536 297.908 60.488C299.785 57.5013 301.876 55.6667 304.18 54.984C306.569 54.3013 309.471 53.96 312.884 53.96C315.359 53.96 317.407 54.2587 319.028 54.856C320.649 55.368 320.905 55.9653 319.796 56.648C318.175 57.7573 316.084 60.232 313.524 64.072C310.964 67.912 308.489 72.2213 306.1 77C305.417 78.3653 304.564 80.2 303.54 82.504C302.516 84.7227 301.492 87.112 300.468 89.672C299.529 92.1467 298.719 94.536 298.036 96.84C297.353 99.0587 297.012 100.893 297.012 102.344C297.012 104.477 297.993 105.544 299.956 105.544C302.004 105.544 304.308 104.563 306.868 102.6C308.063 101.661 309.172 100.595 310.196 99.4C311.22 98.2053 312.159 97.0107 313.012 95.816C314.719 93.512 316.255 91.0373 317.62 88.392C319.071 85.6613 320.393 83.1013 321.588 80.712C321.844 80.2 322.185 79.944 322.612 79.944C323.209 79.944 323.721 80.2427 324.148 80.84C324.575 81.4373 324.617 82.0773 324.276 82.76C322.996 85.32 321.417 88.3493 319.54 91.848C317.663 95.2613 315.487 98.4187 313.012 101.32C310.879 103.795 308.447 105.885 305.716 107.592C303.071 109.213 300.127 110.024 296.884 110.024ZM315.188 47.56C313.737 47.56 312.585 47.0907 311.732 46.152C310.879 45.128 310.452 43.8053 310.452 42.184C310.452 40.2213 310.964 38.4293 311.988 36.808C313.012 35.1867 314.292 33.864 315.828 32.84C317.364 31.816 318.943 31.304 320.564 31.304C322.015 31.304 323.167 31.816 324.02 32.84C324.873 33.7787 325.3 34.9733 325.3 36.424C325.3 38.3013 324.788 40.0933 323.764 41.8C322.74 43.5067 321.46 44.9147 319.924 46.024C318.388 47.048 316.809 47.56 315.188 47.56Z" fill="black"/>
</svg>
