<svg xmlns="http://www.w3.org/2000/svg" version="1.1" xmlns:xlink="http://www.w3.org/1999/xlink" width="1000" height="1000"><g clip-path="url(#SvgjsClipPath1066)"><rect width="1000" height="1000" fill="#ffffff"></rect><g transform="matrix(9.876543209876543,0,0,9.876543209876543,154.32098765432102,100)"><svg xmlns="http://www.w3.org/2000/svg" version="1.1" xmlns:xlink="http://www.w3.org/1999/xlink" width="70" height="81"><svg width="70" height="81" viewBox="0 0 70 81" fill="none" xmlns="http://www.w3.org/2000/svg">
<path d="M32.896 80.28C29.2267 80.28 25.6 79.8533 22.016 79C18.5173 78.1467 15.4027 76.8667 12.672 75.16C11.7333 74.4773 11.0933 73.496 10.752 72.216C10.4107 70.8507 10.24 69.2293 10.24 67.352C10.24 64.024 10.88 60.0987 12.16 55.576C13.44 50.968 15.0613 46.232 17.024 41.368C18.9867 36.504 21.0347 31.896 23.168 27.544C25.3013 23.192 27.2213 19.608 28.928 16.792C30.5493 14.3173 32.5547 12.6107 34.944 11.672C37.3333 10.648 39.8507 10.136 42.496 10.136C48.2133 10.136 50.6453 10.648 49.792 11.672C48 13.72 46.1227 16.408 44.16 19.736C42.1973 23.064 40.3627 26.4773 38.656 29.976C36.9493 33.3893 35.4987 36.376 34.304 38.936C31.488 44.9093 29.0133 50.7547 26.88 56.472C24.7467 62.104 23.296 66.6693 22.528 70.168C22.3573 70.8507 22.272 71.4053 22.272 71.832C22.272 72.7707 22.5707 73.624 23.168 74.392C23.7653 75.0747 24.832 75.544 26.368 75.8C26.9653 75.8853 27.52 75.9707 28.032 76.056C28.6293 76.056 29.2267 76.056 29.824 76.056C33.0667 76.056 36.0533 75.2453 38.784 73.624C41.5147 72.0027 43.2213 69.656 43.904 66.584C44.16 65.56 44.2453 64.4507 44.16 63.256C44.16 61.208 43.8613 58.9467 43.264 56.472C42.6667 53.9973 41.7707 51.6933 40.576 49.56C39.4667 47.4267 38.016 45.848 36.224 44.824C35.3707 44.312 34.944 43.7147 34.944 43.032C34.944 42.264 35.4133 41.7947 36.352 41.624C38.4 41.624 40.4907 40.8133 42.624 39.192C44.8427 37.5707 46.848 35.4373 48.64 32.792C50.5173 30.1467 52.0107 27.288 53.12 24.216C54.3147 21.0587 54.912 18.0293 54.912 15.128C54.912 11.032 53.6747 8.216 51.2 6.68C48.8107 5.05866 45.952 4.24799 42.624 4.24799C39.808 4.24799 36.9067 4.67466 33.92 5.528C30.9333 6.296 28.3307 7.192 26.112 8.216C21.3333 10.4347 17.3227 13.2933 14.08 16.792C10.9227 20.2907 9.088 23.704 8.576 27.032C8.14933 26.8613 7.33867 26.648 6.144 26.392C4.94933 26.136 3.75467 25.624 2.56 24.856C1.45067 24.088 0.810667 22.9787 0.64 21.528C0.384 18.5413 1.10933 15.896 2.816 13.592C4.608 11.2027 7.04 9.19733 10.112 7.576C13.2693 5.86933 16.7253 4.46133 20.48 3.352C24.32 2.24266 28.2027 1.432 32.128 0.919998C36.0533 0.407995 39.7227 0.151993 43.136 0.151993C44.5867 0.151993 45.952 0.194661 47.232 0.279999C48.512 0.365331 49.664 0.493329 50.688 0.663994C57.5147 1.77333 62.4213 3.992 65.408 7.32C68.3947 10.5627 69.888 14.1893 69.888 18.2C69.888 21.784 68.8213 25.3253 66.688 28.824C64.5547 32.2373 61.6107 35.1387 57.856 37.528C54.1867 39.832 49.9627 41.112 45.184 41.368C50.1333 42.4773 53.9307 44.8667 56.576 48.536C59.3067 52.12 60.672 56.0027 60.672 60.184C60.672 63.6827 59.648 67.0533 57.6 70.296C55.552 73.5387 52.2667 76.0133 47.744 77.72C43.3067 79.4267 38.3573 80.28 32.896 80.28Z" fill="black" stroke="white" stroke-width="2"></path>
</svg></svg></g></g><defs><clipPath id="SvgjsClipPath1066"><rect width="1000" height="1000" x="0" y="0" rx="500" ry="500"></rect></clipPath></defs></svg>